<?xml version="1.0" encoding="utf-8"?>
<!-- Generator: Adobe Illustrator 26.3.1, SVG Export Plug-In . SVG Version: 6.00 Build 0)  -->
<svg version="1.1" id="Layer_1" xmlns="http://www.w3.org/2000/svg" xmlns:xlink="http://www.w3.org/1999/xlink" x="0px" y="0px"
	 viewBox="0 0 600 600" style="enable-background:new 0 0 600 600;" xml:space="preserve">
<style type="text/css">
	.st0{fill:none;stroke:#A975B2;stroke-width:10;stroke-miterlimit:10;}
	.st1{fill:#27AAE1;stroke:#A975B2;stroke-width:5;stroke-miterlimit:10;}
	.st2{fill:none;stroke:#A975B2;stroke-width:3;stroke-miterlimit:10;}
</style>
<path class="st0" d="M300.82,189.81l86.11,49.83c0.5,0.29,0.82,0.83,0.82,1.41l0,100.74c0,0.57-0.3,1.1-0.79,1.4l-86.11,52.29
	c-0.52,0.32-1.18,0.32-1.7,0l-86.11-52.66c-0.49-0.3-0.78-0.83-0.78-1.39V240.86c0-0.58,0.31-1.12,0.82-1.42l86.11-49.64
	C299.69,189.51,300.31,189.51,300.82,189.81z"/>
<circle class="st1" cx="300.33" cy="214.33" r="2.2"/>
<circle class="st1" cx="346.04" cy="242.56" r="2.2"/>
<circle class="st1" cx="346.04" cy="339.44" r="2.2"/>
<circle class="st1" cx="300" cy="364.78" r="2.2"/>
<circle class="st1" cx="241.44" cy="242.56" r="2.2"/>
<circle class="st1" cx="241.44" cy="336.44" r="2.2"/>
<circle class="st1" cx="346.04" cy="288.44" r="2.2"/>
<circle class="st1" cx="241.44" cy="288.44" r="2.2"/>
<circle class="st1" cx="300" cy="270.78" r="2.2"/>
<circle class="st1" cx="300.33" cy="312.78" r="2.2"/>
<line class="st2" x1="300.33" y1="214.33" x2="241.44" y2="242.56"/>
<line class="st2" x1="241.44" y1="339.44" x2="241.44" y2="242.56"/>
<line class="st2" x1="300" y1="365.98" x2="241.44" y2="337.44"/>
<line class="st2" x1="300" y1="270.78" x2="346.04" y2="242.56"/>
<line class="st2" x1="346.04" y1="288.44" x2="346.04" y2="244.76"/>
<line class="st2" x1="300" y1="270.78" x2="300" y2="312.78"/>
<line class="st2" x1="346.04" y1="288.44" x2="346.04" y2="339.44"/>
</svg>
